<?xml version="1.0" encoding="utf-8"?>
<!-- Generator: Adobe Illustrator 16.0.0, SVG Export Plug-In . SVG Version: 6.00 Build 0)  -->
<!DOCTYPE svg PUBLIC "-//W3C//DTD SVG 1.1//EN" "http://www.w3.org/Graphics/SVG/1.1/DTD/svg11.dtd">
<svg version="1.1" id="Layer_1" xmlns="http://www.w3.org/2000/svg" xmlns:xlink="http://www.w3.org/1999/xlink" x="0px" y="0px"
	 width="186px" height="55px" viewBox="0 0 186 55" enable-background="new 0 0 186 55" xml:space="preserve">
<path fill="#0E8BC9" d="M179.482,55H6.519C2.925,55,0,52.088,0,48.507V6.5C0,2.916,2.925,0,6.519,0H179.48
	c3.59,0,6.52,2.916,6.52,6.5v42.007C186.003,52.088,183.073,55,179.482,55L179.482,55z"/>
<path fill="#FFFFFF" d="M41.51,27.211c-0.04-4.432,3.636-6.588,3.804-6.688c-2.082-3.029-5.309-3.443-6.442-3.477
	c-2.71-0.285-5.339,1.618-6.719,1.618c-1.408,0-3.534-1.591-5.825-1.544c-2.948,0.045-5.707,1.749-7.22,4.395
	c-3.122,5.395-0.794,13.321,2.198,17.682c1.496,2.137,3.245,4.52,5.533,4.436c2.239-0.091,3.075-1.423,5.777-1.423
	c2.677,0,3.462,1.423,5.796,1.369c2.403-0.037,3.916-2.146,5.36-4.3c1.729-2.446,2.424-4.858,2.451-4.982
	C46.167,34.277,41.557,32.521,41.51,27.211z"/>
<path fill="#FFFFFF" d="M37.101,14.178c1.204-1.503,2.028-3.548,1.799-5.621c-1.743,0.076-3.923,1.202-5.178,2.672
	c-1.11,1.295-2.102,3.418-1.846,5.416C33.834,16.789,35.844,15.658,37.101,14.178z"/>
<g>
	<path fill="#FFFFFF" d="M73.938,43.326h-3.129l-1.714-5.375h-5.958l-1.633,5.375h-3.046l5.904-18.299h3.646L73.938,43.326z
		 M68.579,35.695l-1.55-4.777c-0.164-0.488-0.473-1.638-0.924-3.447H66.05c-0.182,0.778-0.473,1.928-0.871,3.447l-1.524,4.778
		L68.579,35.695L68.579,35.695z"/>
	<path fill="#FFFFFF" d="M89.091,36.566c0,2.244-0.61,4.018-1.832,5.32c-1.094,1.158-2.454,1.737-4.075,1.737
		c-1.751,0-3.01-0.623-3.775-1.871v6.923h-2.937V34.468c0-1.409-0.037-2.854-0.109-4.337h2.583l0.164,2.092h0.055
		c0.98-1.576,2.466-2.365,4.461-2.365c1.56,0,2.862,0.615,3.903,1.846C88.569,32.938,89.091,34.557,89.091,36.566z M86.099,36.673
		c0-1.284-0.289-2.343-0.871-3.178c-0.635-0.868-1.488-1.302-2.557-1.302c-0.725,0-1.383,0.242-1.972,0.719
		c-0.59,0.48-0.975,1.109-1.156,1.888c-0.091,0.363-0.136,0.659-0.136,0.892v2.201c0,0.959,0.295,1.769,0.885,2.432
		c0.59,0.66,1.356,0.99,2.298,0.99c1.106,0,1.967-0.428,2.583-1.275C85.79,39.189,86.099,38.068,86.099,36.673z"/>
	<path fill="#FFFFFF" d="M104.298,36.566c0,2.244-0.61,4.018-1.832,5.32c-1.095,1.158-2.454,1.737-4.077,1.737
		c-1.75,0-3.01-0.623-3.774-1.871v6.923h-2.937V34.468c0-1.409-0.037-2.854-0.109-4.337h2.583l0.164,2.092h0.056
		c0.978-1.576,2.465-2.365,4.461-2.365c1.558,0,2.86,0.615,3.905,1.846C103.773,32.938,104.298,34.557,104.298,36.566z
		 M101.305,36.673c0-1.284-0.291-2.343-0.873-3.178c-0.635-0.868-1.484-1.302-2.554-1.302c-0.726,0-1.383,0.242-1.974,0.719
		c-0.59,0.48-0.975,1.109-1.155,1.888c-0.09,0.363-0.138,0.659-0.138,0.892v2.201c0,0.959,0.296,1.769,0.883,2.432
		c0.59,0.658,1.355,0.99,2.301,0.99c1.107,0,1.969-0.428,2.583-1.275C100.995,39.189,101.305,38.068,101.305,36.673z"/>
	<path fill="#FFFFFF" d="M121.3,38.193c0,1.558-0.546,2.824-1.63,3.802c-1.193,1.067-2.859,1.603-4.994,1.603
		c-1.973,0-3.555-0.38-4.748-1.141l0.68-2.443c1.287,0.762,2.703,1.141,4.244,1.141c1.107,0,1.969-0.25,2.582-0.746
		c0.616-0.498,0.928-1.163,0.928-1.994c0-0.744-0.258-1.367-0.764-1.874c-0.508-0.506-1.349-0.978-2.529-1.411
		c-3.211-1.195-4.817-2.943-4.817-5.241c0-1.501,0.567-2.73,1.7-3.692c1.133-0.959,2.634-1.439,4.503-1.439
		c1.668,0,3.06,0.29,4.162,0.869l-0.737,2.391c-1.039-0.562-2.211-0.842-3.523-0.842c-1.035,0-1.849,0.254-2.43,0.76
		c-0.488,0.452-0.736,1.004-0.736,1.658c0,0.723,0.281,1.321,0.845,1.792c0.487,0.433,1.378,0.905,2.665,1.411
		c1.578,0.635,2.738,1.375,3.482,2.225C120.928,35.869,121.3,36.93,121.3,38.193z"/>
	<path fill="#FFFFFF" d="M131.036,32.331h-3.238v6.405c0,1.63,0.57,2.443,1.714,2.443c0.525,0,0.961-0.045,1.305-0.137l0.082,2.227
		c-0.58,0.215-1.342,0.323-2.285,0.323c-1.159,0-2.066-0.353-2.721-1.06c-0.651-0.707-0.979-1.891-0.979-3.557v-6.651h-1.929v-2.2
		h1.929v-2.416l2.885-0.869v3.285h3.238C131.036,30.126,131.036,32.331,131.036,32.331z"/>
	<path fill="#FFFFFF" d="M145.616,36.62c0,2.028-0.581,3.692-1.742,4.995c-1.214,1.341-2.829,2.009-4.842,2.009
		c-1.943,0-3.487-0.642-4.64-1.925c-1.151-1.286-1.728-2.905-1.728-4.859c0-2.045,0.595-3.719,1.78-5.021
		c1.189-1.303,2.791-1.955,4.804-1.955c1.94,0,3.498,0.643,4.678,1.928C145.055,33.036,145.616,34.645,145.616,36.62z
		 M142.57,36.688c0-1.209-0.262-2.246-0.786-3.113c-0.616-1.049-1.498-1.572-2.64-1.572c-1.178,0-2.08,0.523-2.694,1.572
		c-0.526,0.867-0.788,1.922-0.788,3.168c0,1.21,0.262,2.25,0.788,3.113c0.635,1.049,1.521,1.572,2.669,1.572
		c1.123,0,2.003-0.535,2.64-1.598C142.3,38.941,142.57,37.898,142.57,36.688z"/>
	<path fill="#FFFFFF" d="M155.168,32.709c-0.291-0.054-0.602-0.081-0.926-0.081c-1.033,0-1.832,0.388-2.395,1.169
		c-0.488,0.688-0.734,1.557-0.734,2.605v6.924h-2.937v-9.039c0-1.52-0.028-2.905-0.085-4.154h2.559l0.107,2.525h0.081
		c0.312-0.868,0.8-1.568,1.47-2.092c0.653-0.471,1.36-0.707,2.123-0.707c0.271,0,0.516,0.02,0.733,0.055L155.168,32.709
		L155.168,32.709z"/>
	<path fill="#FFFFFF" d="M168.305,36.104c0,0.525-0.033,0.969-0.106,1.33h-8.812c0.032,1.303,0.459,2.303,1.278,2.989
		c0.743,0.613,1.703,0.921,2.882,0.921c1.305,0,2.495-0.205,3.566-0.623l0.46,2.034c-1.251,0.544-2.728,0.815-4.433,0.815
		c-2.05,0-3.658-0.603-4.83-1.805c-1.168-1.203-1.754-2.82-1.754-4.846c0-1.988,0.545-3.645,1.635-4.966
		c1.141-1.411,2.683-2.116,4.621-2.116c1.905,0,3.349,0.705,4.328,2.116C167.915,33.072,168.305,34.458,168.305,36.104z
		 M165.504,35.344c0.021-0.869-0.172-1.619-0.57-2.254c-0.508-0.816-1.291-1.224-2.338-1.224c-0.961,0-1.744,0.397-2.339,1.194
		c-0.489,0.635-0.78,1.396-0.868,2.28L165.504,35.344L165.504,35.344z"/>
</g>
<g>
	<g>
		<path fill="#FFFFFF" d="M62.291,18.559c-0.817,0-1.524-0.041-2.112-0.107V9.604c0.762-0.119,1.59-0.187,2.487-0.187
			c3.369,0,4.92,1.653,4.92,4.351C67.586,16.877,65.753,18.559,62.291,18.559z M62.784,10.551c-0.455,0-0.842,0.027-1.163,0.094
			v6.726c0.174,0.026,0.507,0.04,0.975,0.04c2.207,0,3.464-1.254,3.464-3.604C66.06,11.713,64.924,10.551,62.784,10.551z"/>
		<path fill="#FFFFFF" d="M72.42,18.625c-1.899,0-3.129-1.415-3.129-3.336c0-2.002,1.257-3.43,3.236-3.43
			c1.871,0,3.129,1.348,3.129,3.324C75.657,17.21,74.36,18.625,72.42,18.625z M72.475,12.913c-1.043,0-1.711,0.974-1.711,2.335
			c0,1.335,0.682,2.309,1.697,2.309s1.697-1.041,1.697-2.336C74.159,13.9,73.491,12.913,72.475,12.913z"/>
		<path fill="#FFFFFF" d="M86.483,11.993l-2.032,6.483h-1.324l-0.842-2.815c-0.214-0.707-0.387-1.401-0.522-2.095h-0.028
			c-0.106,0.707-0.307,1.416-0.521,2.095l-0.896,2.815H78.98l-1.912-6.483h1.484l0.736,3.083c0.174,0.734,0.32,1.427,0.441,2.082
			h0.028c0.106-0.546,0.28-1.229,0.535-2.068l0.923-3.095h1.177l0.883,3.028c0.214,0.734,0.387,1.455,0.522,2.136h0.039
			c0.094-0.667,0.241-1.375,0.441-2.136l0.789-3.028L86.483,11.993L86.483,11.993z"/>
		<path fill="#FFFFFF" d="M93.964,18.479H92.52v-3.725c0-1.146-0.441-1.721-1.31-1.721c-0.856,0-1.444,0.734-1.444,1.588v3.857
			h-1.444v-4.631c0-0.574-0.014-1.188-0.054-1.855h1.27l0.068,1.001h0.04c0.389-0.693,1.177-1.134,2.06-1.134
			c1.364,0,2.26,1.041,2.26,2.735L93.964,18.479L93.964,18.479z"/>
		<path fill="#FFFFFF" d="M97.945,18.479h-1.444V9.018h1.444V18.479z"/>
		<path fill="#FFFFFF" d="M103.211,18.625c-1.896,0-3.129-1.415-3.129-3.336c0-2.002,1.257-3.43,3.234-3.43
			c1.873,0,3.129,1.348,3.129,3.324C106.447,17.21,105.148,18.625,103.211,18.625z M103.264,12.913
			c-1.043,0-1.711,0.974-1.711,2.335c0,1.335,0.684,2.309,1.696,2.309c1.017,0,1.696-1.041,1.696-2.336
			C104.948,13.9,104.281,12.913,103.264,12.913z"/>
		<path fill="#FFFFFF" d="M112.139,18.479l-0.104-0.748h-0.039c-0.44,0.602-1.084,0.895-1.899,0.895
			c-1.164,0-1.992-0.814-1.992-1.909c0-1.6,1.391-2.428,3.797-2.428v-0.12c0-0.854-0.452-1.282-1.348-1.282
			c-0.642,0-1.203,0.161-1.697,0.481l-0.293-0.947c0.601-0.374,1.35-0.561,2.23-0.561c1.697,0,2.555,0.894,2.555,2.683v2.388
			c0,0.655,0.028,1.162,0.094,1.549H112.139L112.139,18.479z M111.939,15.248c-1.604,0-2.407,0.388-2.407,1.309
			c0,0.68,0.415,1.012,0.991,1.012c0.733,0,1.418-0.56,1.418-1.319v-1.001H111.939z"/>
		<path fill="#FFFFFF" d="M120.359,18.479l-0.068-1.041h-0.04c-0.415,0.785-1.112,1.188-2.086,1.188
			c-1.567,0-2.728-1.375-2.728-3.311c0-2.027,1.203-3.457,2.846-3.457c0.869,0,1.484,0.293,1.832,0.882h0.029V9.018h1.444v7.711
			c0,0.627,0.015,1.215,0.054,1.748C121.645,18.479,120.359,18.479,120.359,18.479z M120.145,14.662
			c0-0.908-0.602-1.682-1.521-1.682c-1.071,0-1.726,0.946-1.726,2.28c0,1.308,0.68,2.203,1.697,2.203
			c0.907,0,1.549-0.788,1.549-1.721V14.662z"/>
		<path fill="#FFFFFF" d="M130.754,18.625c-1.896,0-3.128-1.415-3.128-3.336c0-2.002,1.257-3.43,3.235-3.43
			c1.871,0,3.129,1.348,3.129,3.324C133.992,17.21,132.695,18.625,130.754,18.625z M130.809,12.913
			c-1.043,0-1.711,0.974-1.711,2.335c0,1.335,0.682,2.309,1.696,2.309c1.017,0,1.697-1.041,1.697-2.336
			C132.494,13.9,131.826,12.913,130.809,12.913z"/>
		<path fill="#FFFFFF" d="M141.755,18.479h-1.444v-3.725c0-1.146-0.441-1.721-1.311-1.721c-0.855,0-1.443,0.734-1.443,1.588v3.857
			h-1.445v-4.631c0-0.574-0.014-1.188-0.053-1.855h1.27l0.068,1.001h0.039c0.387-0.693,1.178-1.134,2.059-1.134
			c1.363,0,2.261,1.041,2.261,2.734V18.479L141.755,18.479z"/>
		<path fill="#FFFFFF" d="M151.471,13.074h-1.59v3.148c0,0.803,0.278,1.202,0.84,1.202c0.256,0,0.469-0.026,0.641-0.067l0.041,1.096
			c-0.28,0.107-0.654,0.161-1.12,0.161c-1.138,0-1.819-0.628-1.819-2.27v-3.27h-0.947v-1.081h0.947v-1.188l1.418-0.429v1.614h1.59
			V13.074z"/>
		<path fill="#FFFFFF" d="M159.113,18.479h-1.442v-3.696c0-1.161-0.44-1.748-1.31-1.748c-0.748,0-1.445,0.507-1.445,1.534v3.91
			h-1.443V9.018h1.443v3.896h0.029c0.455-0.707,1.113-1.056,1.953-1.056c1.375,0,2.215,1.067,2.215,2.763
			C159.113,14.621,159.113,18.479,159.113,18.479z"/>
		<path fill="#FFFFFF" d="M166.945,15.582h-4.334c0.029,1.229,0.843,1.921,2.048,1.921c0.641,0,1.229-0.106,1.751-0.308l0.225,1.002
			c-0.613,0.267-1.338,0.4-2.18,0.4c-2.032,0-3.234-1.281-3.234-3.269c0-1.988,1.231-3.483,3.071-3.483
			c1.66,0,2.702,1.229,2.702,3.083C166.999,15.182,166.986,15.409,166.945,15.582z M165.621,14.555c0-1.001-0.506-1.707-1.43-1.707
			c-0.828,0-1.484,0.719-1.578,1.707H165.621z"/>
	</g>
</g>
</svg>
